<svg width="17" height="20" viewBox="0 0 17 20" fill="none" xmlns="http://www.w3.org/2000/svg">
<path d="M10.5591 0H2.55914C2.02871 0 1.52 0.210714 1.14493 0.585786C0.769857 0.960859 0.559143 1.46957 0.559143 2V18C0.559143 18.5304 0.769857 19.0391 1.14493 19.4142C1.52 19.7893 2.02871 20 2.55914 20H14.5591C15.0896 20 15.5983 19.7893 15.9734 19.4142C16.3484 19.0391 16.5591 18.5304 16.5591 18V6L10.5591 0ZM6.05714 14.19C5.74814 14.48 5.29214 14.61 4.76114 14.61C4.65818 14.6111 4.55527 14.6051 4.45314 14.592V16.018H3.55914V12.082C3.9626 12.0218 4.37026 11.9944 4.77814 12C5.33514 12 5.73114 12.106 5.99814 12.319C6.25214 12.521 6.42414 12.852 6.42414 13.242C6.42314 13.634 6.29314 13.965 6.05714 14.19ZM9.86414 15.545C9.44414 15.894 8.80514 16.06 8.02414 16.06C7.55614 16.06 7.22514 16.03 7.00014 16V12.083C7.40374 12.0241 7.81128 11.9963 8.21914 12C8.97614 12 9.46814 12.136 9.85214 12.426C10.2671 12.734 10.5271 13.225 10.5271 13.93C10.5271 14.693 10.2481 15.22 9.86414 15.545ZM13.5591 12.77H12.0271V13.681H13.4591V14.415H12.0271V16.019H11.1211V12.03H13.5591V12.77ZM10.5591 7H9.55914V2L14.5591 7H10.5591Z" fill="#2F80ED"/>
</svg>
