<svg width="42" height="53" viewBox="0 0 42 53" fill="none" xmlns="http://www.w3.org/2000/svg">
<path d="M23.5197 38.9727L18.2858 42.9788L17.252 47.6312L24.2951 42.2681L23.5197 38.9727Z" fill="#A6A6A6" fill-opacity="0.5"/>
<path d="M24.6833 43.9492L18.2217 48.86L21.4525 51.9616C21.5171 52.0262 21.5171 52.0262 21.5817 52.0262C21.6463 52.0262 21.7109 52.0262 21.7109 51.9616L25.4586 47.9554C25.5233 47.8908 25.5233 47.8262 25.5233 47.6969L24.6833 43.9492Z" fill="#A6A6A6" fill-opacity="0.5"/>
<path d="M20.1604 34.5148L18.8035 40.5241L23.1973 37.164L22.5512 34.5794L24.3604 32.3179C24.425 32.2532 24.425 32.124 24.425 32.0594L23.2619 29.1517C23.1973 29.0871 23.1327 29.0225 23.0681 29.0225H19.5788C19.5142 29.0225 19.4496 29.0871 19.385 29.1517L18.2865 32.0594C18.2219 32.124 18.2865 32.2532 18.3511 32.3179L20.1604 34.5148Z" fill="#A6A6A6" fill-opacity="0.5"/>
<path d="M21.3873 0.915039C14.4088 0.915039 8.72266 6.60123 8.72266 13.5797C8.72266 20.5582 14.4088 26.2444 21.3873 26.2444C28.3658 26.2444 34.052 20.5582 34.052 13.5797C34.052 6.60123 28.3658 0.915039 21.3873 0.915039ZM30.9505 13.5797C30.9505 18.8782 26.6858 23.1429 21.3873 23.1429C16.0889 23.1429 11.8242 18.8136 11.8242 13.5797C11.8242 12.7397 11.9534 11.9643 12.1473 11.2536C13.3104 11.8351 15.3135 12.6105 17.6396 12.6105C19.3196 12.6105 21.1289 12.2228 22.8735 10.9951C23.0674 10.8659 27.2674 7.82893 30.6274 10.8659C30.8213 11.7059 30.9505 12.6105 30.9505 13.5797Z" fill="#A6A6A6" fill-opacity="0.5"/>
<path d="M41.8706 42.4627L41.9998 39.1027C41.9998 33.4811 37.4767 28.958 31.8551 28.958H31.5321L26.5566 50.992C32.5659 49.7643 37.8644 46.7273 41.8706 42.4627ZM37.5413 38.9735H32.889V37.4873H37.5413V38.9735Z" fill="#A6A6A6" fill-opacity="0.5"/>
<path d="M16.0893 51.1858L10.6616 28.958H10.2093C4.58772 28.958 0 33.5457 0 39.1027L0.129232 42.915C4.39387 47.1797 9.88621 50.152 16.0893 51.1858Z" fill="#A6A6A6" fill-opacity="0.5"/>
</svg>
