<svg width="68" height="37" viewBox="0 0 68 37" fill="none" xmlns="http://www.w3.org/2000/svg">
<path d="M21.9747 21.3308C22.2611 21.116 22.5474 20.9729 22.8337 20.8297C19.8989 19.6129 15.3179 19.4697 13.8863 19.4697C12.1684 19.4697 6.37053 19.6129 3.72211 21.4024C0.357895 23.7645 0 30.9939 0 32.4971C0 32.9266 0.143158 33.356 0.501053 33.7139C0.787368 34.0003 1.21684 34.215 1.64632 34.215H16.8211C17.0358 30.7076 17.8947 24.1224 21.9747 21.3308Z" fill="#A6A6A6" fill-opacity="0.5"/>
<path d="M13.8858 16.8926C18.5505 16.8926 22.3321 13.1111 22.3321 8.44632C22.3321 3.78154 18.5505 0 13.8858 0C9.221 0 5.43945 3.78154 5.43945 8.44632C5.43945 13.1111 9.221 16.8926 13.8858 16.8926Z" fill="#A6A6A6" fill-opacity="0.5"/>
<path d="M68 32.2821C67.9284 30.421 67.4989 23.6926 64.2063 21.4736C61.5579 19.6842 55.76 19.541 54.0421 19.541C52.5389 19.541 47.9579 19.6842 45.0947 20.901C45.381 21.0442 45.6674 21.2589 45.9537 21.4021C49.9621 24.1221 50.9642 30.3494 51.1074 34.2147H66.2821C67.2126 34.2147 67.9284 33.4989 67.9284 32.5684C68 32.4252 68 32.3537 68 32.2821Z" fill="#A6A6A6" fill-opacity="0.5"/>
<path d="M54.042 16.8926C58.7068 16.8926 62.4883 13.1111 62.4883 8.44632C62.4883 3.78154 58.7068 0 54.042 0C49.3772 0 45.5957 3.78154 45.5957 8.44632C45.5957 13.1111 49.3772 16.8926 54.042 16.8926Z" fill="#A6A6A6" fill-opacity="0.5"/>
<path d="M44.1641 24.0508C41.5157 22.2613 35.7178 22.1182 33.9999 22.1182C32.282 22.1182 26.4841 22.2613 23.8357 24.0508C20.4715 26.3413 20.1136 33.6424 20.042 35.074C20.042 35.5034 20.1852 35.9329 20.543 36.2908C20.8294 36.5771 21.2588 36.7918 21.6883 36.7918H46.2399C47.1704 36.7918 47.8862 36.0761 47.8862 35.1455C47.8862 35.074 47.8862 35.0024 47.8862 34.8592C47.8146 33.0697 47.3851 26.2697 44.1641 24.0508Z" fill="#A6A6A6" fill-opacity="0.5"/>
<path d="M34 19.5411C38.6648 19.5411 42.4463 15.7595 42.4463 11.0948C42.4463 6.42998 38.6648 2.64844 34 2.64844C29.3353 2.64844 25.5537 6.42998 25.5537 11.0948C25.5537 15.7595 29.3353 19.5411 34 19.5411Z" fill="#A6A6A6" fill-opacity="0.5"/>
</svg>
