<svg width="42" height="43" viewBox="0 0 42 43" fill="none" xmlns="http://www.w3.org/2000/svg">
<path d="M5.334 8.816V11.138H0V8.816C0 8.55078 0.105357 8.29643 
0.292893 8.10889C0.48043 7.92136 0.734784 7.816 1 7.816H4.334C4.46532 
7.816 4.59536 7.84187 4.71668 7.89212C4.83801 7.94238 4.94825 8.01603 
5.04111 8.10889C5.13397 8.20175 5.20763 8.31199 5.25788 8.43332C5.30814 
8.55464 5.334 8.68468 5.334 8.816ZM0 35.647L1.789 38.935C1.87493 39.093 
2.00188 39.2249 2.15649 39.3168C2.3111 39.4087 2.48763 39.4573 2.6675 39.4573C2.84736 
39.4573 3.0239 39.4087 3.17851 39.3168C3.33312 39.2249 3.46007 39.093 3.546 38.935L5.334 
35.647V14.138H0V35.647ZM33.047 2.684V10.576H39.535L33.047 2.684ZM31.547 13.576C31.1492 
13.576 30.7676 13.418 30.4863 13.1367C30.205 12.8554 30.047 12.4738 30.047 12.076V0H10.206C9.94078 0 
9.68643 0.105357 9.49889 0.292893C9.31136 0.48043 9.206 0.734784 9.206 1V41.188C9.206 41.4532 9.31136 
41.7076 9.49889 41.8951C9.68643 42.0826 9.94078 42.188 10.206 42.188H40.212C40.4772 42.188 40.7316 
42.0826 40.9191 41.8951C41.1066 41.7076 41.212 41.4532 41.212 41.188V13.576H31.547Z" fill="#A6A6A6" fill-opacity="0.5"/>
</svg>
