<svg width="16" height="15" viewBox="0 0 16 15" fill="none" xmlns="http://www.w3.org/2000/svg">
<path d="M13.6 3.7998H2.4C1.6268 3.7998 1 4.42661 1 5.1998V12.1998C1 12.973 1.6268 13.5998 2.4 13.5998H13.6C14.3732 13.5998 15 12.973 15 12.1998V5.1998C15 4.42661 14.3732 3.7998 13.6 3.7998Z" stroke="#A6A6A6" stroke-width="1.5" stroke-linecap="round" stroke-linejoin="round"/>
<path d="M10.8 13.6V2.4C10.8 2.0287 10.6525 1.6726 10.3899 1.41005C10.1273 1.1475 9.77125 1 9.39995 1H6.59995C6.22865 1 5.87255 1.1475 5.61 1.41005C5.34745 1.6726 5.19995 2.0287 5.19995 2.4V13.6" stroke="#A6A6A6" stroke-width="1.5" stroke-linecap="round" stroke-linejoin="round"/>
</svg>
